<!--?xml version="1.0" standalone="no"?-->

<svg version="1.0" xmlns="http://www.w3.org/2000/svg" width="300.000000pt" height="300.000000pt" viewBox="0 0 300.000000 300.000000" preserveAspectRatio="xMidYMid meet">
<g transform="translate(0.000000,300.000000) scale(0.100000,-0.100000)" fill="#171717" stroke="none">
<path class="node" id="node1" d="M140 2583 c0 -29 2 -30 53 -37 28 -3 87 -6 130 -6 43 0 110 -7 150
-16 162 -37 238 -104 297 -264 39 -107 77 -165 143 -224 29 -26 69 -62 89 -82
28 -27 42 -33 61 -29 14 4 28 2 31 -4 4 -6 24 -11 44 -11 47 -1 72 -22 97 -85
26 -62 80 -102 150 -111 46 -6 57 -13 135 -89 70 -68 91 -83 117 -83 36 -1 53
-8 53 -23 0 -7 -13 -8 -32 -4 l-33 6 37 -33 c20 -18 38 -40 40 -49 2 -9 20
-36 40 -60 123 -143 399 -561 512 -774 33 -63 32 -63 -130 -64 -227 -2 -369
47 -445 152 -16 22 -29 44 -29 49 0 4 21 8 48 8 l47 0 -64 30 c-35 17 -76 39
-91 50 -50 35 -52 24 -13 -64 52 -119 134 -215 219 -259 96 -49 383 -74 549
-48 134 21 124 16 161 96 86 186 136 421 117 552 -18 126 -87 231 -214 329
-63 48 -68 47 -44 -10 8 -19 21 -71 29 -113 8 -43 15 -66 15 -51 1 15 6 39 12
55 l11 28 39 -44 c77 -87 94 -239 46 -421 -33 -121 -51 -173 -64 -177 -13 -5
-283 272 -411 422 -57 66 -142 172 -190 235 -85 111 -87 113 -90 82 -5 -48
-26 -34 -30 19 -2 24 -7 48 -13 54 -5 5 -9 17 -9 27 0 10 -11 36 -25 58 -13
21 -45 76 -71 122 -43 78 -45 86 -39 136 8 65 -7 116 -48 160 -30 31 -113 66
-140 57 -7 -2 -24 -6 -39 -9 -15 -4 -44 -20 -63 -38 -26 -22 -45 -31 -68 -30
-18 1 -46 2 -64 2 -18 0 -35 5 -38 10 -3 6 -22 10 -41 10 -83 0 -193 117 -240
255 -59 177 -153 265 -328 310 -33 8 -129 18 -213 22 l-153 6 0 -30z m1309
-609 c52 -37 56 -115 9 -156 -31 -27 -93 -24 -123 7 -30 29 -31 42 -5 50 27 9
43 41 36 71 -4 14 -4 29 -1 34 10 16 58 12 84 -6z"></path>
</g>
<g transform="translate(0.000000,300.000000) scale(0.100000,-0.100000)" fill="#A2A2A2" stroke="none">

<path class="node" id="node3" d="M1365 1980 c-3 -5 -3 -20 1 -34 7 -30 -9 -62 -36 -71 -26 -8 -25 -21
5 -50 30 -31 92 -34 123 -7 47 41 43 119 -9 156 -26 18 -74 22 -84 6z"></path>
</g>
</svg>