<svg width="24" height="25" viewBox="0 0 24 25" fill="none" xmlns="http://www.w3.org/2000/svg">
<g clip-path="url(#clip0_612_88)">
<path d="M0 12.5001C0 19.1275 5.37266 24.4999 12.0001 24.4999C18.6275 24.4999 23.9999 19.1275 23.9999 12.5001C23.9999 5.87266 18.6275 0.5 12.0001 0.5C5.37266 0.5 0 5.87266 0 12.5001ZM10.6042 7.51043L15.6568 11.9316C15.8212 12.0747 15.9158 12.282 15.9158 12.5001C15.9158 12.718 15.8212 12.9254 15.6568 13.0684L10.6042 17.4895C10.2904 17.765 9.81229 17.734 9.53683 17.4201C9.26136 17.106 9.29235 16.6282 9.60621 16.3527L14.0084 12.5001L9.60621 8.64746C9.29235 8.37176 9.26136 7.89391 9.53683 7.58005C9.81229 7.26596 10.2904 7.23497 10.6042 7.51043Z" fill="white"/>
</g>
<defs>
<clipPath id="clip0_612_88">
<rect width="24" height="24" fill="white" transform="translate(0 0.5)"/>
</clipPath>
</defs>
</svg>
