<svg width="251" height="177" viewBox="0 0 251 177" fill="none" xmlns="http://www.w3.org/2000/svg">
<path d="M119.303 1V1C131.814 17.1735 120.286 40.6646 99.8384 40.6646H29.8731C13.9237 40.6646 0.994141 53.5941 0.994141 69.5435V69.5435C0.994141 86.0429 14.3695 99.4183 30.8689 99.4183H203.023C225.193 99.4183 240.016 122.248 230.994 142.5V142.5" stroke="white" stroke-linecap="round" stroke-dasharray="6 6"/>
<g clip-path="url(#clip0_499_5753)">
<path d="M221.254 152.364L225.122 149.412C225.393 149.206 225.764 149.196 226.045 149.388C226.115 149.437 226.176 149.495 226.225 149.56C226.374 149.755 226.426 150.014 226.355 150.259L225.002 154.872L221.254 152.364Z" fill="#FEAB01"/>
<path d="M216.187 175.944C215.905 175.856 215.694 175.618 215.644 175.326L211.122 149.08C211.069 148.769 211.206 148.458 211.469 148.286C211.734 148.114 212.074 148.117 212.335 148.291L218.1 152.147L217.079 170.508L220.876 154.005L230.538 160.468C230.609 160.517 230.673 160.576 230.725 160.645C230.812 160.758 230.867 160.894 230.882 161.039C230.907 161.272 230.826 161.503 230.664 161.67L216.985 175.74C216.777 175.953 216.47 176.031 216.187 175.944Z" fill="#FEAB01"/>
</g>
<defs>
<clipPath id="clip0_499_5753">
<rect width="25.1815" height="25.1815" fill="white" transform="matrix(0.606691 0.794937 0.794937 -0.606691 200.994 156.277)"/>
</clipPath>
</defs>
</svg>
